<?xml version="1.0" encoding="UTF-8"?>
<!DOCTYPE svg PUBLIC "-//W3C//DTD SVG 1.1//EN" "http://www.w3.org/Graphics/SVG/1.1/DTD/svg11.dtd">
<svg xmlns="http://www.w3.org/2000/svg" xml:space="preserve" width="100%" height="auto" style="shape-rendering:geometricPrecision; text-rendering:geometricPrecision; image-rendering:optimizeQuality; fill-rule:evenodd; clip-rule:evenodd"
viewBox="0 0 1170 192"
 xmlns:xlink="http://www.w3.org/1999/xlink">
 <defs>
  <style type="text/css">
   <![CDATA[
    .fil0 {fill:#2D3464}
   ]]>
  </style>
 </defs>
 <g id="Ebene_x0020_1">
  <path class="fil0" d="M77 0c-31,0 -65,13 -66,49 0,17 6,29 20,39l57 -2c-7,-2 -13,-4 -20,-6 -16,-5 -34,-13 -34,-32 0,-21 24,-25 40,-25 18,0 37,6 52,16l9 -20c-17,-11 -40,-18 -60,-18zm38 128c2,4 3,8 3,13 0,23 -26,29 -45,29 -7,0 -15,-1 -22,-3 -15,-4 -30,-13 -41,-24l-10 20c13,12 29,21 46,25 9,2 18,4 27,4 33,0 68,-14 69,-52 0,-4 0,-9 -1,-12l-25 1zm153 -128c-49,0 -92,33 -99,83l22 -1c7,-37 40,-62 76,-62 35,0 66,23 75,57l23 -1c-9,-46 -51,-77 -97,-77zm-95 126l0 0c14,41 52,65 95,66 42,0 80,-25 94,-66 1,-2 1,-4 2,-6l-23 1c-1,2 -1,3 -2,5 -13,28 -40,46 -71,46 -31,0 -59,-17 -71,-46l-23 1zm255 44l0 -52 -22 1 0 72 105 0 0 -21 -83 0zm0 -95l0 -74 -22 0 0 75 22 -1zm140 116l0 -78 -22 1 0 77 22 0zm0 -120l0 -70 -22 0 0 70 22 -1zm58 -70l0 68 22 -1 0 -46 55 0c20,0 39,7 54,21 6,6 11,13 15,21l24 -1c-3,-9 -7,-17 -13,-24 -19,-25 -48,-38 -79,-38l-77 0zm0 111l0 79 76 0c11,0 22,-2 32,-5 29,-9 52,-30 62,-60 2,-7 4,-14 4,-21l-22 1c-1,7 -3,13 -5,19 -8,18 -22,32 -40,39 -9,4 -19,6 -30,6l-55 0 0 -60 -22 1zm369 -111l-22 0 0 56 22 -1 0 -56zm-22 99l0 13c0,37 -21,58 -58,58 -37,0 -58,-22 -58,-58l0 -9 -22 1 0 8c0,50 30,79 80,79 50,0 79,-29 80,-79l0 -13 -22 1zm-116 -39l0 -60 -22 0 0 61 22 -1zm248 -61c-16,0 -34,3 -48,13 -14,10 -19,25 -18,42l24 -1c-1,-2 -1,-5 -1,-7 0,-20 24,-25 40,-25 18,0 37,6 52,16l9 -20c-17,-11 -40,-18 -60,-18zm-27 97c23,7 68,13 68,44 0,23 -26,29 -45,29 -7,0 -15,-1 -22,-3 -15,-4 -30,-13 -41,-24l-10 20c13,12 29,21 46,25 9,2 18,4 27,4 17,0 36,-4 50,-14 12,-9 19,-22 19,-38 0,-22 -10,-35 -30,-45l-62 2z"/>
 </g>
</svg>
